<?xml version="1.0" standalone="no"?>
<!DOCTYPE svg PUBLIC "-//W3C//DTD SVG 20010904//EN"
 "http://www.w3.org/TR/2001/REC-SVG-20010904/DTD/svg10.dtd">
<svg version="1.0" xmlns="http://www.w3.org/2000/svg"
 width="76.000000pt" height="74.000000pt" viewBox="0 0 76.000000 74.000000"
 preserveAspectRatio="xMidYMid meet">

<g transform="translate(0.000000,74.000000) scale(0.100000,-0.100000)"
fill="#000000" stroke="none">
<path d="M241 610 c-96 -33 -169 -64 -177 -75 -8 -10 -14 -37 -14 -60 0 -23
-5 -46 -11 -52 -7 -7 -9 -30 -6 -60 12 -100 25 -175 34 -184 5 -5 67 -32 139
-59 l129 -49 192 75 c106 42 193 80 193 84 0 4 -11 11 -25 14 -21 5 -25 12
-25 41 0 25 5 35 20 40 29 9 25 22 -10 29 -26 5 -30 10 -30 40 0 31 4 36 35
46 41 14 45 25 10 34 -20 5 -25 12 -25 40 0 23 7 38 22 48 20 14 15 17 -106
61 -70 26 -140 46 -154 46 -15 -1 -101 -27 -191 -59z m322 5 c59 -21 104 -42
100 -46 -11 -10 -312 -129 -328 -129 -7 0 -60 18 -119 40 -58 22 -111 40 -116
40 -6 0 -10 -19 -10 -43 l0 -44 123 -46 122 -47 164 65 c90 36 168 62 174 58
6 -3 -68 -37 -164 -75 l-174 -68 -65 24 c-36 13 -95 36 -132 50 l-68 26 0 -48
0 -47 127 -49 c71 -27 133 -49 138 -49 6 0 76 26 157 57 81 32 154 56 162 54
9 -2 -60 -33 -153 -69 l-168 -65 -109 42 c-60 24 -115 43 -121 43 -9 1 -13
-14 -13 -43 l0 -43 123 -47 123 -47 164 65 c90 36 168 62 172 58 5 -5 -70 -39
-165 -76 l-174 -67 -124 47 c-68 26 -127 52 -131 58 -4 6 -8 28 -8 50 0 21 -8
59 -17 85 -15 44 -15 49 0 81 9 18 17 49 17 69 0 20 4 42 8 49 9 13 350 132
367 128 6 -2 59 -20 118 -41z m97 -102 c0 -27 -7 -31 -163 -91 l-163 -63 -112
42 c-108 40 -112 42 -112 71 0 20 4 29 13 26 6 -3 57 -22 112 -42 l101 -38
149 60 c83 33 156 60 163 61 7 1 12 -11 12 -26z m-30 -125 l0 -33 -149 -57
-149 -57 -123 47 c-113 44 -124 50 -127 75 -4 35 5 34 103 -4 163 -64 132 -64
295 1 80 32 146 58 148 59 1 1 2 -14 2 -31z m30 -105 c0 -27 -8 -31 -158 -90
-86 -35 -162 -63 -167 -63 -5 0 -58 19 -117 41 -102 40 -108 43 -108 70 0 16
2 29 4 29 3 0 51 -18 107 -40 57 -22 108 -40 113 -40 6 0 79 27 161 60 83 32
153 59 158 60 4 0 7 -12 7 -27z"/>
</g>
</svg>
